<?xml version="1.0" encoding="utf-8"?>
<!-- Generator: Adobe Illustrator 25.0.1, SVG Export Plug-In . SVG Version: 6.00 Build 0)  -->
<svg version="1.1" id="Layer_1" xmlns="http://www.w3.org/2000/svg" xmlns:xlink="http://www.w3.org/1999/xlink" x="0px" y="0px"
	 viewBox="0 0 1080 1080" style="enable-background:new 0 0 1080 1080;" xml:space="preserve">
<style type="text/css">
	.st0{fill:#4769AF;}
	.st1{fill:#6FBB28;}
	.st2{fill:#FC191C;}
	.st3{fill:#FEAE01;}
	.st4{fill:#4E82BB;}
</style>
<g>
	<g>
		<g>
			<path d="M311.47,744.15v-25.14l-10.84,16.45h-0.22l-10.73-16.28v24.98h-8.36v-38.51h9.13l10.12,16.28l10.12-16.28h9.13l0,38.51
				H311.47z"/>
			<path d="M345.47,744.15v-3.19c-1.03,1.14-2.26,2.05-3.69,2.72c-1.43,0.68-3.17,1.02-5.23,1.02c-1.39,0-2.71-0.19-3.93-0.58
				c-1.23-0.39-2.3-0.96-3.22-1.73c-0.92-0.77-1.64-1.71-2.17-2.83c-0.53-1.12-0.8-2.41-0.8-3.88v-0.11c0-1.61,0.29-3.01,0.88-4.18
				c0.59-1.17,1.4-2.15,2.45-2.92c1.05-0.77,2.29-1.35,3.74-1.73c1.45-0.39,3.05-0.58,4.81-0.58c1.5,0,2.81,0.11,3.93,0.33
				c1.12,0.22,2.21,0.51,3.27,0.88v-0.5c0-1.76-0.53-3.1-1.59-4.02c-1.06-0.92-2.64-1.38-4.73-1.38c-1.61,0-3.03,0.14-4.26,0.41
				c-1.23,0.27-2.52,0.67-3.88,1.18l-2.09-6.38c1.61-0.7,3.3-1.27,5.06-1.71c1.76-0.44,3.89-0.66,6.38-0.66
				c4.58,0,7.92,1.12,10.01,3.36c2.09,2.24,3.14,5.36,3.14,9.35l0,17.11H345.47z M345.64,732.27c-0.73-0.33-1.55-0.6-2.45-0.8
				c-0.9-0.2-1.86-0.3-2.89-0.3c-1.8,0-3.21,0.35-4.24,1.05c-1.03,0.7-1.54,1.71-1.54,3.03v0.11c0,1.14,0.42,2.02,1.27,2.64
				c0.84,0.62,1.94,0.93,3.3,0.93c1.98,0,3.57-0.48,4.76-1.43c1.19-0.95,1.79-2.2,1.79-3.74V732.27z"/>
			<path d="M379.42,744.15v-16.41c0-1.98-0.44-3.47-1.32-4.47c-0.88-1.01-2.13-1.51-3.74-1.51c-1.61,0-2.89,0.5-3.82,1.51
				c-0.94,1.01-1.4,2.5-1.4,4.47v16.41h-8.36l0-40.16h8.36v14.89c0.48-0.63,1-1.23,1.57-1.8c0.57-0.57,1.2-1.08,1.9-1.52
				c0.7-0.44,1.47-0.79,2.31-1.05c0.84-0.26,1.8-0.39,2.86-0.39c3.19,0,5.66,0.97,7.4,2.92c1.74,1.94,2.61,4.62,2.61,8.03v19.09
				H379.42z"/>
			<path d="M412.31,744.15v-3.19c-1.03,1.14-2.26,2.05-3.69,2.72c-1.43,0.68-3.17,1.02-5.23,1.02c-1.39,0-2.71-0.19-3.93-0.58
				c-1.23-0.39-2.3-0.96-3.22-1.73c-0.92-0.77-1.64-1.71-2.17-2.83c-0.53-1.12-0.8-2.41-0.8-3.88v-0.11c0-1.61,0.29-3.01,0.88-4.18
				c0.59-1.17,1.4-2.15,2.45-2.92c1.05-0.77,2.29-1.35,3.74-1.73c1.45-0.39,3.05-0.58,4.81-0.58c1.5,0,2.81,0.11,3.93,0.33
				c1.12,0.22,2.21,0.51,3.27,0.88v-0.5c0-1.76-0.53-3.1-1.59-4.02c-1.06-0.92-2.64-1.38-4.73-1.38c-1.61,0-3.03,0.14-4.26,0.41
				c-1.23,0.27-2.52,0.67-3.88,1.18l-2.09-6.38c1.61-0.7,3.3-1.27,5.06-1.71c1.76-0.44,3.89-0.66,6.38-0.66
				c4.58,0,7.92,1.12,10.01,3.36c2.09,2.24,3.14,5.36,3.14,9.35v17.11H412.31z M412.48,732.27c-0.73-0.33-1.55-0.6-2.45-0.8
				c-0.9-0.2-1.86-0.3-2.89-0.3c-1.8,0-3.21,0.35-4.24,1.05c-1.03,0.7-1.54,1.71-1.54,3.03v0.11c0,1.14,0.42,2.02,1.27,2.64
				c0.84,0.62,1.94,0.93,3.3,0.93c1.98,0,3.57-0.48,4.76-1.43c1.19-0.95,1.79-2.2,1.79-3.74V732.27z"/>
			<path d="M444.94,722.86c-2.79,0-4.98,0.84-6.57,2.53c-1.6,1.69-2.39,4.31-2.39,7.87v10.89h-8.36v-29.49h8.36l0,5.94
				c0.84-2.02,2-3.63,3.47-4.84c1.47-1.21,3.45-1.76,5.94-1.65v8.75H444.94z"/>
			<path d="M467.88,744.15v-3.19c-1.03,1.14-2.26,2.05-3.69,2.72c-1.43,0.68-3.17,1.02-5.23,1.02c-1.39,0-2.71-0.19-3.93-0.58
				c-1.23-0.39-2.3-0.96-3.22-1.73c-0.92-0.77-1.64-1.71-2.17-2.83c-0.53-1.12-0.8-2.41-0.8-3.88v-0.11c0-1.61,0.29-3.01,0.88-4.18
				c0.59-1.17,1.4-2.15,2.45-2.92c1.05-0.77,2.29-1.35,3.74-1.73c1.45-0.39,3.05-0.58,4.81-0.58c1.5,0,2.81,0.11,3.93,0.33
				c1.12,0.22,2.21,0.51,3.27,0.88v-0.5c0-1.76-0.53-3.1-1.59-4.02c-1.06-0.92-2.64-1.38-4.73-1.38c-1.61,0-3.03,0.14-4.26,0.41
				c-1.23,0.27-2.52,0.67-3.88,1.18l-2.09-6.38c1.61-0.7,3.3-1.27,5.06-1.71c1.76-0.44,3.89-0.66,6.38-0.66
				c4.58,0,7.92,1.12,10.01,3.36c2.09,2.24,3.14,5.36,3.14,9.35l0,17.11H467.88z M468.04,732.27c-0.73-0.33-1.55-0.6-2.45-0.8
				c-0.9-0.2-1.86-0.3-2.89-0.3c-1.8,0-3.21,0.35-4.24,1.05c-1.03,0.7-1.54,1.71-1.54,3.03v0.11c0,1.14,0.42,2.02,1.27,2.64
				c0.84,0.62,1.94,0.93,3.3,0.93c1.98,0,3.57-0.48,4.76-1.43c1.19-0.95,1.79-2.2,1.79-3.74V732.27z"/>
			<path d="M503.94,739.45c-0.57,1.19-1.37,2.17-2.39,2.94c-1.03,0.77-2.23,1.35-3.6,1.73c-1.38,0.38-2.85,0.58-4.43,0.58
				c-2.09,0-4.23-0.36-6.41-1.07c-2.18-0.72-4.26-1.84-6.24-3.38l3.58-5.5c1.61,1.17,3.22,2.05,4.81,2.64
				c1.59,0.59,3.09,0.88,4.48,0.88c1.21,0,2.1-0.2,2.67-0.61c0.57-0.4,0.85-0.93,0.85-1.59v-0.11c0-0.44-0.16-0.83-0.49-1.16
				c-0.33-0.33-0.78-0.61-1.35-0.85c-0.57-0.24-1.22-0.47-1.95-0.69c-0.73-0.22-1.5-0.46-2.31-0.71c-1.03-0.29-2.06-0.65-3.11-1.07
				c-1.04-0.42-1.99-0.97-2.83-1.65c-0.84-0.68-1.53-1.51-2.06-2.5c-0.53-0.99-0.8-2.2-0.8-3.63v-0.11c0-1.5,0.28-2.83,0.85-3.99
				c0.57-1.16,1.34-2.14,2.31-2.94c0.97-0.81,2.11-1.41,3.41-1.82s2.7-0.61,4.21-0.61c1.87,0,3.77,0.3,5.69,0.91
				c1.93,0.6,3.69,1.44,5.31,2.5l-3.19,5.78c-1.47-0.84-2.9-1.51-4.29-2.01c-1.39-0.5-2.62-0.74-3.69-0.74
				c-1.03,0-1.8,0.19-2.31,0.58c-0.51,0.39-0.77,0.87-0.77,1.46v0.11c0,0.4,0.17,0.76,0.5,1.07c0.33,0.31,0.77,0.61,1.32,0.88
				c0.55,0.28,1.18,0.54,1.9,0.8c0.72,0.26,1.48,0.51,2.28,0.77c1.03,0.33,2.07,0.72,3.14,1.18c1.06,0.46,2.02,1.02,2.86,1.68
				c0.84,0.66,1.54,1.47,2.09,2.42c0.55,0.95,0.82,2.11,0.82,3.47v0.11C504.79,736.84,504.51,738.26,503.94,739.45z"/>
			<path d="M529.44,744.15v-16.41c0-1.98-0.44-3.47-1.32-4.47c-0.88-1.01-2.13-1.51-3.74-1.51c-1.61,0-2.89,0.5-3.82,1.51
				c-0.94,1.01-1.4,2.5-1.4,4.47v16.41l-8.36,0v-40.16h8.36v14.89c0.48-0.63,1-1.23,1.57-1.8c0.57-0.57,1.2-1.08,1.9-1.52
				c0.7-0.44,1.47-0.79,2.31-1.05c0.84-0.26,1.8-0.39,2.86-0.39c3.19,0,5.66,0.97,7.4,2.92c1.74,1.94,2.61,4.62,2.61,8.03v19.09
				H529.44z"/>
			<path d="M558.71,744.18c-1.06,0.31-2.29,0.47-3.69,0.47c-1.28,0-2.45-0.14-3.49-0.41c-1.05-0.28-1.94-0.76-2.7-1.46
				c-0.75-0.7-1.34-1.6-1.76-2.72c-0.42-1.12-0.63-2.54-0.63-4.26v-13.97h-3.52v-7.15h3.52v-7.54h8.36v7.54h6.93v7.15h-6.93v12.6
				c0,1.91,0.9,2.86,2.7,2.86c1.47,0,2.84-0.35,4.13-1.05v6.71C560.74,743.46,559.77,743.87,558.71,744.18z"/>
			<path d="M585.22,722.86c-2.79,0-4.98,0.84-6.57,2.53c-1.6,1.69-2.39,4.31-2.39,7.87v10.89h-8.36v-29.49h8.36v5.94
				c0.84-2.02,2-3.63,3.47-4.84c1.47-1.21,3.45-1.76,5.94-1.65v8.75H585.22z"/>
			<path d="M608.16,744.15v-3.19c-1.03,1.14-2.26,2.05-3.69,2.72c-1.43,0.68-3.17,1.02-5.23,1.02c-1.39,0-2.71-0.19-3.93-0.58
				c-1.23-0.39-2.3-0.96-3.22-1.73c-0.92-0.77-1.64-1.71-2.17-2.83c-0.53-1.12-0.8-2.41-0.8-3.88v-0.11c0-1.61,0.29-3.01,0.88-4.18
				c0.59-1.17,1.4-2.15,2.45-2.92c1.05-0.77,2.29-1.35,3.74-1.73c1.45-0.39,3.05-0.58,4.81-0.58c1.5,0,2.81,0.11,3.93,0.33
				c1.12,0.22,2.21,0.51,3.27,0.88v-0.5c0-1.76-0.53-3.1-1.59-4.02c-1.06-0.92-2.64-1.38-4.73-1.38c-1.61,0-3.03,0.14-4.26,0.41
				c-1.23,0.27-2.52,0.67-3.88,1.18l-2.09-6.38c1.61-0.7,3.3-1.27,5.06-1.71c1.76-0.44,3.89-0.66,6.38-0.66
				c4.58,0,7.92,1.12,10.01,3.36c2.09,2.24,3.14,5.36,3.14,9.35v17.11H608.16z M608.33,732.27c-0.73-0.33-1.55-0.6-2.45-0.8
				c-0.9-0.2-1.86-0.3-2.89-0.3c-1.8,0-3.21,0.35-4.24,1.05c-1.03,0.7-1.54,1.71-1.54,3.03v0.11c0,1.14,0.42,2.02,1.27,2.64
				c0.84,0.62,1.94,0.93,3.3,0.93c1.98,0,3.57-0.48,4.76-1.43c1.19-0.95,1.79-2.2,1.79-3.74V732.27z"/>
			<path d="M667.64,737.85c-0.69,1.49-1.66,2.73-2.9,3.74c-1.24,1.01-2.72,1.78-4.44,2.31c-1.72,0.53-3.62,0.8-5.71,0.8
				c-2.93,0-5.81-0.5-8.64-1.51c-2.82-1.01-5.39-2.56-7.7-4.65l5.01-6c1.76,1.43,3.57,2.57,5.42,3.41c1.85,0.84,3.88,1.26,6.08,1.26
				c1.76,0,3.13-0.32,4.1-0.96c0.97-0.64,1.46-1.53,1.46-2.67v-0.11c0-0.55-0.1-1.04-0.3-1.46c-0.2-0.42-0.59-0.82-1.16-1.18
				c-0.57-0.37-1.36-0.73-2.37-1.1c-1.01-0.37-2.33-0.75-3.94-1.16c-1.95-0.48-3.71-1.01-5.3-1.6c-1.58-0.59-2.92-1.31-4.03-2.17
				s-1.96-1.93-2.56-3.22c-0.61-1.28-0.91-2.88-0.91-4.79v-0.11c0-1.76,0.33-3.35,0.98-4.76c0.66-1.41,1.58-2.63,2.76-3.66
				c1.18-1.03,2.6-1.82,4.24-2.37c1.64-0.55,3.46-0.83,5.44-0.83c2.82,0,5.42,0.42,7.78,1.27c2.37,0.84,4.54,2.05,6.52,3.63
				l-4.4,6.38c-1.72-1.17-3.41-2.1-5.06-2.78c-1.65-0.68-3.3-1.02-4.95-1.02c-1.65,0-2.89,0.32-3.71,0.96
				c-0.82,0.64-1.24,1.44-1.24,2.39v0.11c0,0.62,0.12,1.16,0.36,1.62c0.24,0.46,0.67,0.87,1.3,1.24s1.48,0.71,2.57,1.04
				c1.08,0.33,2.45,0.72,4.11,1.16c1.95,0.51,3.69,1.09,5.21,1.73c1.53,0.64,2.81,1.41,3.86,2.31c1.05,0.9,1.84,1.95,2.37,3.16
				c0.53,1.21,0.8,2.66,0.8,4.35v0.11C668.68,734.67,668.33,736.37,667.64,737.85z"/>
			<path d="M688.81,744.18c-1.06,0.31-2.29,0.47-3.69,0.47c-1.28,0-2.45-0.14-3.49-0.41c-1.05-0.28-1.94-0.76-2.7-1.46
				c-0.75-0.7-1.34-1.6-1.76-2.72c-0.42-1.12-0.63-2.54-0.63-4.26v-13.97h-3.52v-7.15h3.52v-7.54h8.36v7.54h6.93v7.15h-6.93v12.6
				c0,1.91,0.9,2.86,2.7,2.86c1.47,0,2.84-0.35,4.13-1.05v6.71C690.85,743.46,689.88,743.87,688.81,744.18z"/>
			<path d="M715.28,744.15v-3.19c-1.03,1.14-2.26,2.05-3.69,2.72c-1.43,0.68-3.17,1.02-5.23,1.02c-1.39,0-2.71-0.19-3.93-0.58
				c-1.23-0.39-2.3-0.96-3.22-1.73c-0.92-0.77-1.64-1.71-2.17-2.83c-0.53-1.12-0.8-2.41-0.8-3.88v-0.11c0-1.61,0.29-3.01,0.88-4.18
				c0.59-1.17,1.4-2.15,2.45-2.92c1.05-0.77,2.29-1.35,3.74-1.73c1.45-0.39,3.05-0.58,4.81-0.58c1.5,0,2.81,0.11,3.93,0.33
				c1.12,0.22,2.21,0.51,3.27,0.88v-0.5c0-1.76-0.53-3.1-1.59-4.02c-1.06-0.92-2.64-1.38-4.73-1.38c-1.61,0-3.03,0.14-4.26,0.41
				c-1.23,0.27-2.52,0.67-3.88,1.18l-2.09-6.38c1.61-0.7,3.3-1.27,5.06-1.71c1.76-0.44,3.89-0.66,6.38-0.66
				c4.58,0,7.92,1.12,10.01,3.36c2.09,2.24,3.14,5.36,3.14,9.35v17.11H715.28z M715.44,732.27c-0.73-0.33-1.55-0.6-2.45-0.8
				c-0.9-0.2-1.86-0.3-2.89-0.3c-1.8,0-3.21,0.35-4.24,1.05c-1.03,0.7-1.54,1.71-1.54,3.03v0.11c0,1.14,0.42,2.02,1.27,2.64
				c0.84,0.62,1.94,0.93,3.3,0.93c1.98,0,3.57-0.48,4.76-1.43c1.19-0.95,1.79-2.2,1.79-3.74V732.27z"/>
			<path d="M744.21,744.18c-1.06,0.31-2.29,0.47-3.69,0.47c-1.28,0-2.45-0.14-3.49-0.41c-1.05-0.28-1.94-0.76-2.7-1.46
				c-0.75-0.7-1.34-1.6-1.76-2.72c-0.42-1.12-0.63-2.54-0.63-4.26v-13.97h-3.52v-7.15h3.52v-7.54h8.36v7.54h6.93v7.15h-6.93v12.6
				c0,1.91,0.9,2.86,2.7,2.86c1.47,0,2.84-0.35,4.13-1.05v6.71C746.25,743.46,745.28,743.87,744.21,744.18z"/>
			<path d="M780.88,731.28c-0.02,0.29-0.05,0.64-0.08,1.05h-20.52c0.4,1.91,1.24,3.35,2.5,4.32c1.27,0.97,2.83,1.46,4.7,1.46
				c1.39,0,2.64-0.24,3.74-0.72c1.1-0.48,2.24-1.25,3.41-2.31l4.79,4.24c-1.39,1.72-3.08,3.07-5.06,4.04
				c-1.98,0.97-4.31,1.46-6.99,1.46c-2.2,0-4.25-0.37-6.13-1.1c-1.89-0.73-3.52-1.78-4.9-3.14c-1.38-1.36-2.45-2.96-3.22-4.81
				c-0.77-1.85-1.15-3.91-1.15-6.19v-0.11c0-2.09,0.36-4.07,1.07-5.94c0.71-1.87,1.71-3.5,3-4.9c1.28-1.39,2.81-2.49,4.59-3.3
				c1.78-0.81,3.75-1.21,5.91-1.21c2.46,0,4.58,0.44,6.38,1.32c1.8,0.88,3.29,2.06,4.48,3.55c1.19,1.49,2.07,3.19,2.64,5.12
				c0.57,1.93,0.85,3.93,0.85,6.02v0.11C780.91,730.64,780.9,730.99,780.88,731.28z M770.79,722.56c-1.06-1.16-2.48-1.73-4.24-1.73
				c-1.76,0-3.18,0.57-4.26,1.7c-1.08,1.14-1.79,2.66-2.12,4.57h12.6C772.51,725.23,771.85,723.71,770.79,722.56z"/>
			<path d="M111.28,771.58v8.31h18.37v7.65h-18.37v14.91h-8.47l0-38.51h29.32v7.65L111.28,771.58z"/>
			<path d="M155.29,802.44v-3.19c-1.03,1.14-2.26,2.05-3.69,2.72c-1.43,0.68-3.17,1.02-5.23,1.02c-1.39,0-2.71-0.19-3.93-0.58
				c-1.23-0.39-2.3-0.96-3.22-1.73c-0.92-0.77-1.64-1.71-2.17-2.83c-0.53-1.12-0.8-2.41-0.8-3.88v-0.11c0-1.61,0.29-3.01,0.88-4.18
				c0.59-1.17,1.4-2.15,2.45-2.92c1.05-0.77,2.29-1.35,3.74-1.73c1.45-0.39,3.05-0.58,4.81-0.58c1.5,0,2.81,0.11,3.93,0.33
				c1.12,0.22,2.21,0.51,3.27,0.88v-0.5c0-1.76-0.53-3.1-1.59-4.02c-1.06-0.92-2.64-1.38-4.73-1.38c-1.61,0-3.03,0.14-4.26,0.41
				c-1.23,0.27-2.52,0.67-3.88,1.18l-2.09-6.38c1.61-0.7,3.3-1.27,5.06-1.71c1.76-0.44,3.89-0.66,6.38-0.66
				c4.58,0,7.92,1.12,10.01,3.36c2.09,2.24,3.14,5.36,3.14,9.35l0,17.11H155.29z M155.45,790.56c-0.73-0.33-1.55-0.6-2.45-0.8
				c-0.9-0.2-1.86-0.3-2.89-0.3c-1.8,0-3.21,0.35-4.24,1.05c-1.03,0.7-1.54,1.71-1.54,3.03v0.11c0,1.14,0.42,2.02,1.27,2.64
				c0.84,0.62,1.94,0.93,3.3,0.93c1.98,0,3.57-0.48,4.76-1.43c1.19-0.95,1.79-2.2,1.79-3.74V790.56z"/>
			<path d="M191.65,801.59c-1.83,1.01-4.22,1.51-7.15,1.51c-2.2,0-4.25-0.4-6.13-1.21c-1.89-0.81-3.51-1.9-4.87-3.27
				c-1.36-1.37-2.42-2.99-3.19-4.84c-0.77-1.85-1.15-3.82-1.15-5.91v-0.11c0-2.09,0.38-4.07,1.15-5.94c0.77-1.87,1.83-3.5,3.19-4.9
				c1.36-1.39,2.98-2.49,4.87-3.3c1.89-0.81,3.97-1.21,6.24-1.21c2.79,0,5.1,0.44,6.93,1.32c1.83,0.88,3.45,2.09,4.84,3.63
				l-5.12,5.5c-0.95-0.99-1.94-1.78-2.94-2.37c-1.01-0.59-2.26-0.88-3.77-0.88c-1.06,0-2.03,0.21-2.89,0.63
				c-0.86,0.42-1.61,1-2.26,1.73c-0.64,0.73-1.14,1.59-1.49,2.56c-0.35,0.97-0.52,2.01-0.52,3.11v0.11c0,1.14,0.17,2.2,0.52,3.19
				s0.85,1.85,1.51,2.59c0.66,0.73,1.45,1.31,2.37,1.73c0.92,0.42,1.94,0.63,3.08,0.63c1.39,0,2.61-0.28,3.66-0.85
				c1.05-0.57,2.08-1.33,3.11-2.28l4.9,4.95C195.12,799.28,193.49,800.58,191.65,801.59z"/>
			<path d="M220.43,802.44v-4.22c-0.48,0.63-1,1.23-1.57,1.8c-0.57,0.57-1.2,1.08-1.9,1.52c-0.7,0.44-1.47,0.79-2.31,1.05
				c-0.84,0.26-1.8,0.39-2.86,0.39c-3.19,0-5.66-0.97-7.4-2.92c-1.74-1.94-2.61-4.62-2.61-8.03v-19.09h8.36v16.41
				c0,1.98,0.44,3.47,1.32,4.47c0.88,1.01,2.13,1.51,3.74,1.51c1.61,0,2.89-0.5,3.82-1.51c0.93-1.01,1.4-2.5,1.4-4.47v-16.41h8.36
				v29.49H220.43z"/>
			<path d="M236.65,802.44l0-40.16h8.36l0,40.16H236.65z"/>
			<path d="M266.53,802.47c-1.06,0.31-2.29,0.47-3.69,0.47c-1.28,0-2.45-0.14-3.49-0.41c-1.05-0.28-1.94-0.76-2.7-1.46
				c-0.75-0.7-1.34-1.6-1.76-2.72c-0.42-1.12-0.63-2.54-0.63-4.26V780.1h-3.52v-7.15h3.52v-7.54h8.36v7.54h6.93v7.15h-6.93v12.6
				c0,1.91,0.9,2.86,2.7,2.86c1.47,0,2.84-0.35,4.13-1.05v6.71C268.56,801.74,267.59,802.16,266.53,802.47z"/>
			<path d="M292.44,803.15c-0.55,1.5-1.14,2.78-1.76,3.82c-0.62,1.05-1.31,1.9-2.06,2.56c-0.75,0.66-1.6,1.14-2.56,1.43
				c-0.95,0.29-2.05,0.44-3.3,0.44c-1.54,0-2.9-0.18-4.07-0.55c-1.17-0.37-2.29-0.86-3.36-1.48l2.81-6.05
				c0.55,0.33,1.15,0.61,1.79,0.83c0.64,0.22,1.24,0.33,1.79,0.33c0.73,0,1.31-0.14,1.73-0.41c0.42-0.27,0.82-0.78,1.18-1.51
				l-11.55-29.6l8.86,0l6.71,20.08l6.44-20.08h8.69L292.44,803.15z"/>
			<path d="M360.1,790.78c-0.99,2.35-2.39,4.38-4.21,6.11c-1.82,1.72-3.98,3.08-6.49,4.07c-2.51,0.99-5.27,1.49-8.28,1.49h-15.02
				v-38.51h15.02c3.01,0,5.77,0.49,8.28,1.46c2.51,0.97,4.68,2.32,6.49,4.04c1.82,1.72,3.22,3.75,4.21,6.08
				c0.99,2.33,1.49,4.85,1.49,7.57v0.11C361.59,785.9,361.09,788.43,360.1,790.78z M352.73,783.18c0-1.69-0.28-3.25-0.85-4.68
				c-0.57-1.43-1.36-2.66-2.37-3.69c-1.01-1.03-2.23-1.82-3.66-2.39c-1.43-0.57-3.01-0.85-4.73-0.85h-6.55v23.22h6.55
				c1.72,0,3.3-0.28,4.73-0.83c1.43-0.55,2.65-1.34,3.66-2.37c1.01-1.03,1.8-2.24,2.37-3.63c0.57-1.39,0.85-2.95,0.85-4.68V783.18z"
				/>
			<path d="M395.73,789.57c-0.02,0.29-0.05,0.64-0.08,1.05l-20.52,0c0.4,1.91,1.24,3.35,2.5,4.32c1.27,0.97,2.83,1.46,4.7,1.46
				c1.39,0,2.64-0.24,3.74-0.72c1.1-0.48,2.24-1.25,3.41-2.31l4.79,4.24c-1.39,1.72-3.08,3.07-5.06,4.04
				c-1.98,0.97-4.31,1.46-6.99,1.46c-2.2,0-4.25-0.37-6.13-1.1c-1.89-0.73-3.52-1.78-4.9-3.14c-1.38-1.36-2.45-2.96-3.22-4.81
				c-0.77-1.85-1.15-3.91-1.15-6.19v-0.11c0-2.09,0.36-4.07,1.07-5.94c0.71-1.87,1.71-3.5,3-4.9c1.28-1.39,2.81-2.49,4.59-3.3
				c1.78-0.81,3.75-1.21,5.91-1.21c2.46,0,4.58,0.44,6.38,1.32c1.8,0.88,3.29,2.06,4.48,3.55c1.19,1.49,2.07,3.19,2.64,5.12
				c0.57,1.93,0.85,3.93,0.85,6.02v0.11C395.75,788.92,395.74,789.27,395.73,789.57z M385.63,780.85c-1.06-1.16-2.48-1.73-4.24-1.73
				c-1.76,0-3.18,0.57-4.26,1.7c-1.08,1.14-1.79,2.66-2.12,4.57l12.6,0C387.35,783.51,386.69,782,385.63,780.85z"/>
			<path d="M418.53,802.66h-7.59l-11.61-29.71h8.86l6.6,19.75l6.66-19.75h8.69L418.53,802.66z"/>
			<path d="M462.46,789.57c-0.02,0.29-0.05,0.64-0.08,1.05h-20.52c0.4,1.91,1.24,3.35,2.5,4.32c1.27,0.97,2.83,1.46,4.7,1.46
				c1.39,0,2.64-0.24,3.74-0.72c1.1-0.48,2.24-1.25,3.41-2.31l4.79,4.24c-1.39,1.72-3.08,3.07-5.06,4.04
				c-1.98,0.97-4.31,1.46-6.99,1.46c-2.2,0-4.25-0.37-6.13-1.1c-1.89-0.73-3.52-1.78-4.9-3.14c-1.38-1.36-2.45-2.96-3.22-4.81
				c-0.77-1.85-1.15-3.91-1.15-6.19v-0.11c0-2.09,0.36-4.07,1.07-5.94c0.71-1.87,1.71-3.5,3-4.9c1.28-1.39,2.81-2.49,4.59-3.3
				c1.78-0.81,3.75-1.21,5.91-1.21c2.46,0,4.58,0.44,6.38,1.32c1.8,0.88,3.29,2.06,4.48,3.55c1.19,1.49,2.07,3.19,2.64,5.12
				c0.57,1.93,0.85,3.93,0.85,6.02v0.11C462.49,788.92,462.48,789.27,462.46,789.57z M452.36,780.85c-1.06-1.16-2.48-1.73-4.24-1.73
				c-1.76,0-3.18,0.57-4.26,1.7c-1.08,1.14-1.79,2.66-2.12,4.57h12.6C454.09,783.51,453.43,782,452.36,780.85z"/>
			<path d="M469.09,802.44v-40.16h8.36l0,40.16L469.09,802.44z"/>
			<path d="M514.58,793.72c-0.81,1.85-1.93,3.47-3.36,4.87c-1.43,1.39-3.12,2.49-5.06,3.3c-1.94,0.81-4.07,1.21-6.38,1.21
				c-2.27,0-4.38-0.39-6.33-1.18c-1.94-0.79-3.62-1.87-5.03-3.25c-1.41-1.38-2.52-2.99-3.33-4.84c-0.81-1.85-1.21-3.84-1.21-5.97
				v-0.11c0-2.13,0.4-4.12,1.21-5.97c0.81-1.85,1.93-3.47,3.36-4.87c1.43-1.39,3.12-2.49,5.06-3.3c1.94-0.81,4.07-1.21,6.38-1.21
				c2.27,0,4.38,0.39,6.33,1.18c1.94,0.79,3.62,1.87,5.03,3.25c1.41,1.38,2.52,2.99,3.33,4.84c0.81,1.85,1.21,3.84,1.21,5.97v0.11
				C515.79,789.88,515.39,791.87,514.58,793.72z M507.54,787.75c0-1.1-0.18-2.14-0.55-3.11c-0.37-0.97-0.9-1.83-1.6-2.59
				c-0.7-0.75-1.52-1.35-2.48-1.79c-0.95-0.44-2-0.66-3.14-0.66c-1.21,0-2.28,0.21-3.22,0.63c-0.94,0.42-1.73,1-2.39,1.73
				c-0.66,0.73-1.16,1.59-1.51,2.56c-0.35,0.97-0.52,2.01-0.52,3.11v0.11c0,1.1,0.18,2.14,0.55,3.11c0.37,0.97,0.9,1.83,1.59,2.59
				c0.7,0.75,1.51,1.35,2.45,1.79c0.94,0.44,1.99,0.66,3.16,0.66c1.21,0,2.28-0.21,3.22-0.63c0.93-0.42,1.73-1,2.39-1.73
				c0.66-0.73,1.16-1.59,1.51-2.56c0.35-0.97,0.52-2.01,0.52-3.11V787.75z"/>
			<path d="M551.69,794.27c-0.75,1.89-1.74,3.48-2.97,4.79c-1.23,1.3-2.65,2.28-4.26,2.94c-1.61,0.66-3.3,0.99-5.06,0.99
				c-2.24,0-4.08-0.44-5.53-1.31c-1.45-0.87-2.67-1.89-3.66-3.06v12.62h-8.36v-38.29h8.36v4.2c1.03-1.38,2.26-2.52,3.71-3.41
				c1.45-0.89,3.27-1.34,5.47-1.34c1.72,0,3.39,0.33,5.01,0.99c1.61,0.66,3.04,1.64,4.29,2.94c1.25,1.3,2.25,2.9,3,4.79
				c0.75,1.89,1.13,4.06,1.13,6.52v0.11C552.82,790.21,552.44,792.38,551.69,794.27z M544.46,787.64c0-1.22-0.19-2.34-0.58-3.35
				c-0.38-1.02-0.91-1.88-1.57-2.6c-0.66-0.72-1.42-1.27-2.28-1.66s-1.79-0.58-2.78-0.58c-0.99,0-1.92,0.19-2.78,0.58
				c-0.86,0.39-1.61,0.94-2.26,1.66c-0.64,0.72-1.16,1.59-1.54,2.6c-0.38,1.02-0.58,2.13-0.58,3.35v0.11c0,1.22,0.19,2.34,0.58,3.35
				c0.39,1.02,0.9,1.88,1.54,2.6c0.64,0.72,1.39,1.27,2.26,1.66c0.86,0.39,1.79,0.58,2.78,0.58c0.99,0,1.92-0.19,2.78-0.58
				c0.86-0.39,1.62-0.94,2.28-1.66c0.66-0.72,1.18-1.58,1.57-2.58c0.39-1,0.58-2.12,0.58-3.38V787.64z"/>
			<path d="M595.62,802.44v-16.41c0-1.98-0.42-3.47-1.26-4.47c-0.84-1.01-2.05-1.51-3.63-1.51c-1.58,0-2.82,0.5-3.71,1.51
				c-0.9,1.01-1.35,2.5-1.35,4.47v16.41h-8.36v-16.41c0-1.98-0.42-3.47-1.27-4.47c-0.84-1.01-2.05-1.51-3.63-1.51
				c-1.58,0-2.82,0.5-3.71,1.51c-0.9,1.01-1.35,2.5-1.35,4.47v16.41h-8.36v-29.49h8.36v4.22c0.48-0.63,1-1.23,1.57-1.8
				c0.57-0.57,1.2-1.08,1.9-1.52c0.7-0.44,1.48-0.79,2.34-1.05c0.86-0.26,1.82-0.39,2.89-0.39c1.94,0,3.62,0.41,5.03,1.22
				c1.41,0.81,2.5,1.98,3.27,3.49c1.28-1.55,2.71-2.72,4.29-3.52c1.58-0.79,3.37-1.19,5.39-1.19c3.12,0,5.56,0.92,7.32,2.75
				c1.76,1.83,2.64,4.53,2.64,8.09v19.2H595.62z"/>
			<path d="M638.72,789.57c-0.02,0.29-0.05,0.64-0.08,1.05h-20.52c0.4,1.91,1.24,3.35,2.5,4.32c1.27,0.97,2.83,1.46,4.7,1.46
				c1.39,0,2.64-0.24,3.74-0.72c1.1-0.48,2.24-1.25,3.41-2.31l4.79,4.24c-1.39,1.72-3.08,3.07-5.06,4.04
				c-1.98,0.97-4.31,1.46-6.99,1.46c-2.2,0-4.25-0.37-6.13-1.1c-1.89-0.73-3.52-1.78-4.9-3.14c-1.38-1.36-2.45-2.96-3.22-4.81
				c-0.77-1.85-1.15-3.91-1.15-6.19v-0.11c0-2.09,0.36-4.07,1.07-5.94c0.71-1.87,1.71-3.5,3-4.9c1.28-1.39,2.81-2.49,4.59-3.3
				c1.78-0.81,3.75-1.21,5.91-1.21c2.46,0,4.58,0.44,6.38,1.32c1.8,0.88,3.29,2.06,4.48,3.55c1.19,1.49,2.07,3.19,2.64,5.12
				c0.57,1.93,0.85,3.93,0.85,6.02v0.11C638.75,788.92,638.74,789.27,638.72,789.57z M628.63,780.85c-1.06-1.16-2.48-1.73-4.24-1.73
				c-1.76,0-3.18,0.57-4.26,1.7c-1.08,1.14-1.79,2.66-2.12,4.57h12.6C630.35,783.51,629.69,782,628.63,780.85z"/>
			<path d="M663.62,802.44v-16.41c0-1.98-0.44-3.47-1.32-4.47c-0.88-1.01-2.13-1.51-3.74-1.51c-1.61,0-2.89,0.5-3.82,1.51
				s-1.4,2.5-1.4,4.47v16.41h-8.36v-29.49h8.36v4.22c0.48-0.63,1-1.23,1.57-1.8c0.57-0.57,1.2-1.08,1.9-1.52
				c0.7-0.44,1.47-0.79,2.31-1.05c0.84-0.26,1.8-0.39,2.86-0.39c3.19,0,5.66,0.97,7.4,2.92c1.74,1.94,2.61,4.62,2.61,8.03v19.09
				H663.62z"/>
			<path d="M692.88,802.47c-1.06,0.31-2.29,0.47-3.69,0.47c-1.28,0-2.45-0.14-3.49-0.41c-1.05-0.28-1.94-0.76-2.7-1.46
				c-0.75-0.7-1.34-1.6-1.76-2.72c-0.42-1.12-0.63-2.54-0.63-4.26V780.1l-3.52,0v-7.15h3.52v-7.54h8.36v7.54h6.93v7.15h-6.93v12.6
				c0,1.91,0.9,2.86,2.7,2.86c1.47,0,2.84-0.35,4.13-1.05v6.71C694.92,801.74,693.95,802.16,692.88,802.47z"/>
			<path d="M748.12,802.44l-3.52-8.64h-16.28l-3.52,8.64h-8.64l16.5-38.78h7.81l16.5,38.78H748.12z M736.45,773.83l-5.12,12.49
				h10.23L736.45,773.83z"/>
			<path d="M783.11,801.59c-1.83,1.01-4.22,1.51-7.15,1.51c-2.2,0-4.25-0.4-6.14-1.21c-1.89-0.81-3.51-1.9-4.87-3.27
				c-1.36-1.37-2.42-2.99-3.19-4.84c-0.77-1.85-1.15-3.82-1.15-5.91v-0.11c0-2.09,0.38-4.07,1.15-5.94c0.77-1.87,1.83-3.5,3.19-4.9
				c1.36-1.39,2.98-2.49,4.87-3.3c1.89-0.81,3.97-1.21,6.24-1.21c2.79,0,5.1,0.44,6.93,1.32c1.83,0.88,3.45,2.09,4.84,3.63
				l-5.12,5.5c-0.95-0.99-1.94-1.78-2.94-2.37c-1.01-0.59-2.26-0.88-3.77-0.88c-1.06,0-2.03,0.21-2.89,0.63
				c-0.86,0.42-1.61,1-2.26,1.73c-0.64,0.73-1.14,1.59-1.49,2.56c-0.35,0.97-0.52,2.01-0.52,3.11v0.11c0,1.14,0.17,2.2,0.52,3.19
				c0.35,0.99,0.85,1.85,1.51,2.59c0.66,0.73,1.45,1.31,2.37,1.73c0.92,0.42,1.94,0.63,3.08,0.63c1.39,0,2.61-0.28,3.66-0.85
				c1.05-0.57,2.08-1.33,3.11-2.28l4.9,4.95C786.57,799.29,784.94,800.58,783.11,801.59z"/>
			<path d="M810.72,802.44v-3.19c-1.03,1.14-2.26,2.05-3.69,2.72c-1.43,0.68-3.17,1.02-5.23,1.02c-1.39,0-2.71-0.19-3.93-0.58
				c-1.23-0.39-2.3-0.96-3.22-1.73c-0.92-0.77-1.64-1.71-2.17-2.83c-0.53-1.12-0.8-2.41-0.8-3.88v-0.11c0-1.61,0.29-3.01,0.88-4.18
				c0.59-1.17,1.4-2.15,2.45-2.92c1.05-0.77,2.29-1.35,3.74-1.73c1.45-0.39,3.05-0.58,4.81-0.58c1.5,0,2.81,0.11,3.93,0.33
				c1.12,0.22,2.21,0.51,3.27,0.88v-0.5c0-1.76-0.53-3.1-1.59-4.02c-1.06-0.92-2.64-1.38-4.73-1.38c-1.61,0-3.03,0.14-4.26,0.41
				c-1.23,0.27-2.52,0.67-3.88,1.18l-2.09-6.38c1.61-0.7,3.3-1.27,5.06-1.71c1.76-0.44,3.89-0.66,6.38-0.66
				c4.58,0,7.92,1.12,10.01,3.36c2.09,2.24,3.14,5.36,3.14,9.35v17.11H810.72z M810.89,790.56c-0.73-0.33-1.55-0.6-2.45-0.8
				c-0.9-0.2-1.86-0.3-2.89-0.3c-1.8,0-3.21,0.35-4.24,1.05c-1.03,0.7-1.54,1.71-1.54,3.03v0.11c0,1.14,0.42,2.02,1.27,2.64
				c0.84,0.62,1.94,0.93,3.3,0.93c1.98,0,3.57-0.48,4.76-1.43c1.19-0.95,1.79-2.2,1.79-3.74V790.56z"/>
			<path d="M847.31,802.44v-4.2c-1.03,1.38-2.26,2.52-3.71,3.41c-1.45,0.89-3.27,1.34-5.47,1.34c-1.72,0-3.39-0.33-5.01-0.99
				c-1.61-0.66-3.04-1.64-4.29-2.94c-1.25-1.3-2.25-2.9-3-4.79c-0.75-1.89-1.13-4.06-1.13-6.52v-0.11c0-2.46,0.38-4.63,1.13-6.52
				c0.75-1.89,1.74-3.48,2.97-4.79c1.23-1.3,2.65-2.28,4.26-2.94c1.61-0.66,3.3-0.99,5.06-0.99c2.24,0,4.08,0.44,5.53,1.31
				c1.45,0.87,2.67,1.89,3.66,3.06v-14.49h8.36v40.16H847.31z M847.42,787.64c0-1.22-0.19-2.34-0.58-3.35
				c-0.39-1.02-0.9-1.88-1.54-2.6c-0.64-0.72-1.39-1.27-2.26-1.66c-0.86-0.39-1.79-0.58-2.78-0.58c-0.99,0-1.92,0.19-2.78,0.58
				c-0.86,0.39-1.62,0.94-2.28,1.66c-0.66,0.72-1.18,1.58-1.57,2.58c-0.39,1-0.58,2.12-0.58,3.38v0.11c0,1.22,0.19,2.34,0.58,3.35
				c0.38,1.02,0.91,1.88,1.57,2.6c0.66,0.72,1.42,1.27,2.28,1.66c0.86,0.39,1.79,0.58,2.78,0.58c0.99,0,1.92-0.19,2.78-0.58
				c0.86-0.39,1.61-0.94,2.26-1.66c0.64-0.72,1.15-1.59,1.54-2.6c0.39-1.02,0.58-2.13,0.58-3.35V787.64z"/>
			<path d="M890.63,789.57c-0.02,0.29-0.05,0.64-0.08,1.05h-20.52c0.4,1.91,1.24,3.35,2.5,4.32c1.27,0.97,2.83,1.46,4.7,1.46
				c1.39,0,2.64-0.24,3.74-0.72c1.1-0.48,2.24-1.25,3.41-2.31l4.79,4.24c-1.39,1.72-3.08,3.07-5.06,4.04
				c-1.98,0.97-4.31,1.46-6.99,1.46c-2.2,0-4.25-0.37-6.13-1.1c-1.89-0.73-3.52-1.78-4.9-3.14c-1.38-1.36-2.45-2.96-3.22-4.81
				c-0.77-1.85-1.15-3.91-1.15-6.19v-0.11c0-2.09,0.36-4.07,1.07-5.94c0.71-1.87,1.71-3.5,3-4.9c1.28-1.39,2.81-2.49,4.59-3.3
				c1.78-0.81,3.75-1.21,5.91-1.21c2.46,0,4.58,0.44,6.38,1.32c1.8,0.88,3.29,2.06,4.48,3.55c1.19,1.49,2.07,3.19,2.64,5.12
				c0.57,1.93,0.85,3.93,0.85,6.02v0.11C890.66,788.92,890.65,789.27,890.63,789.57z M880.54,780.85c-1.06-1.16-2.48-1.73-4.24-1.73
				c-1.76,0-3.18,0.57-4.26,1.7c-1.08,1.14-1.79,2.66-2.12,4.57h12.6C882.26,783.51,881.6,782,880.54,780.85z"/>
			<path d="M933.51,802.44v-16.41c0-1.98-0.42-3.47-1.26-4.47s-2.05-1.51-3.63-1.51c-1.57,0-2.81,0.5-3.71,1.51
				c-0.9,1.01-1.35,2.5-1.35,4.47l0,16.41h-8.36v-16.41c0-1.98-0.42-3.47-1.26-4.47c-0.84-1.01-2.05-1.51-3.63-1.51
				c-1.58,0-2.81,0.5-3.71,1.51c-0.9,1.01-1.35,2.5-1.35,4.47v16.41h-8.36v-29.49h8.36v4.22c0.48-0.63,1-1.23,1.57-1.8
				c0.57-0.57,1.2-1.08,1.9-1.52c0.7-0.44,1.48-0.79,2.34-1.05c0.86-0.26,1.82-0.39,2.89-0.39c1.94,0,3.62,0.41,5.03,1.22
				c1.41,0.81,2.5,1.98,3.27,3.49c1.28-1.55,2.71-2.72,4.29-3.52c1.57-0.79,3.37-1.19,5.39-1.19c3.12,0,5.56,0.92,7.32,2.75
				s2.64,4.53,2.64,8.09v19.2H933.51z"/>
			<path d="M965.86,803.15c-0.55,1.5-1.14,2.78-1.76,3.82c-0.62,1.05-1.31,1.9-2.06,2.56c-0.75,0.66-1.6,1.14-2.56,1.43
				c-0.95,0.29-2.05,0.44-3.3,0.44c-1.54,0-2.9-0.18-4.07-0.55c-1.17-0.37-2.29-0.86-3.35-1.48l2.81-6.05
				c0.55,0.33,1.14,0.61,1.79,0.83c0.64,0.22,1.24,0.33,1.79,0.33c0.73,0,1.31-0.14,1.73-0.41c0.42-0.27,0.82-0.78,1.18-1.51
				l-11.55-29.6h8.86l6.71,20.08l6.44-20.08h8.69L965.86,803.15z"/>
		</g>
	</g>
	<path class="st0" d="M705.52,543.68l-6.29,15.83l-17.21,45.59h0.08l17.21-45.59l6.29-15.83H705.52z"/>
	<path class="st1" d="M863.38,478.85v0.71c0,44.1-16.6,81.28-46.9,103.48c-0.03,0.01-0.04,0.03-0.07,0.04l-0.01-0.04l-23.33-55.19
		c0.01-0.03-0.06-0.06-0.04-0.09c7.85-10.49,12.07-29.58,12.07-47.14v-0.71c0-39.98-25.03-67.4-60.06-67.4l-14.3-0.04v0.04
		l-66.83-0.04v-56.52l94.27,0c1.91,0.18,3.8,0.38,5.65,0.63C827.18,364.81,863.38,413.26,863.38,478.85z"/>
	<polygon class="st2" points="841.72,642.95 778.93,642.95 763.53,605.21 763.03,603.88 746.63,559.63 740.43,543.81 723.09,499.56 
		705.52,543.79 699.23,559.63 682.03,605.21 666.93,642.95 605.36,642.95 663.78,504.7 695.31,430.13 751.76,430.13 790.98,522.9 
		791.01,522.97 816.4,583.04 816.41,583.08 	"/>
	<polygon class="st1" points="763.53,605.32 682.03,605.32 694.72,571.69 699.23,559.74 703.52,548.92 742.39,548.92 746.63,559.74 
		747.91,563.18 763.04,603.99 	"/>
	<polygon class="st3" points="774.41,268.59 774.41,319.91 663.92,319.91 663.92,479.91 663.92,479.91 663.78,504.58 605.32,504.58 
		605.32,461.46 605.36,461.46 605.36,268.59 	"/>
	<path class="st1" d="M585.77,355.94v0.07l-56.24,0c-41.8,0-75.81,30.41-75.81,67.79c0,21.21,8.07,37.77,23.97,49.23
		c13.12,9.45,28.87,13.71,41.53,17.13c12.12,3.28,19.16,4.89,21.58,7.62c1.45,1.64,2.22,2.26,2.22,5.39
		c0,6.23-5.92,11.11-13.49,11.11h-46.75l0-0.15h-48.13l0,56.82h19.32h28.81h46.75c41.8,0,75.82-30.41,75.82-67.79
		c0-21.21-8.07-37.77-23.97-49.23c-13.12-9.45-28.88-13.71-41.53-17.13c-12.12-3.28-18.9-5.14-21.58-7.62
		c-0.93-0.86-2.22-2.26-2.22-5.39c0-6.23,5.92-11.12,13.49-11.12l75.82,0v-0.08v-56.59v-0.07L585.77,355.94z"/>
	<path class="st4" d="M207.24,355.69l63.04,0l51.35,83.33l51.35-83.33l63.04,0l0,215.26h-59.35l0-123.62l-55.04,84.26h-1.23
		l-54.74-83.64l0,123h-58.43L207.24,355.69z"/>
</g>
</svg>
